HIERARCHY
ROOT Hips
{
  OFFSET 363.916 89.4436 202.859
  CHANNELS 6 Xposition Yposition Zposition Zrotation Xrotation Yrotation
  JOINT RightUpLeg
  {
    OFFSET -9.22681 -1.41939 0.059526
    CHANNELS 3 Zrotation Xrotation Yrotation
    JOINT RightLeg
    {
      OFFSET 0.076897 -41.8891 0.179098
      CHANNELS 3 Zrotation Xrotation Yrotation
      JOINT RightFoot
      {
        OFFSET -0.0130714 -43.0092 0.527065
        CHANNELS 3 Zrotation Xrotation Yrotation
        End Site
        {
          OFFSET 0 -7.69 17.5
        }
      }
    }
  }
  JOINT LeftUpLeg
  {
    OFFSET 9.19333 -1.7604 -0.077889
    CHANNELS 3 Zrotation Xrotation Yrotation
    JOINT LeftLeg
    {
      OFFSET -0.0291634 -41.859 -0.15197
      CHANNELS 3 Zrotation Xrotation Yrotation
      JOINT LeftFoot
      {
        OFFSET 0.141288 -40.5593 0.458407
        CHANNELS 3 Zrotation Xrotation Yrotation
        End Site
        {
          OFFSET 0 -7.69 17.5
        }
      }
    }
  }
  JOINT Spine
  {
    OFFSET 0.215607 14.2961 0.04713
    CHANNELS 3 Zrotation Xrotation Yrotation
    JOINT Spine1
    {
      OFFSET 0.127345 9.70675 0.00151561
      CHANNELS 3 Zrotation Xrotation Yrotation
      JOINT Spine2
      {
        OFFSET 0.0493166 10.1169 -0.00299987
        CHANNELS 3 Zrotation Xrotation Yrotation
        JOINT Spine3
        {
          OFFSET 0.0599611 9.70888 0.0197622
          CHANNELS 3 Zrotation Xrotation Yrotation
          JOINT Neck
          {
            OFFSET 0.305156 10.372 0.0704915
            CHANNELS 3 Zrotation Xrotation Yrotation
            JOINT Head
            {
              OFFSET 0.288394 9.47974 0.0406202
              CHANNELS 3 Zrotation Xrotation Yrotation
              End Site
              {
                OFFSET 0 15.95 0
              }
            }
          }
          JOINT RightShoulder
          {
            OFFSET -3.14873 6.92098 0.0285763
            CHANNELS 3 Zrotation Xrotation Yrotation
            JOINT RightArm
            {
              OFFSET -12.7049 -0.00288304 0.0369593
              CHANNELS 3 Zrotation Xrotation Yrotation
              JOINT RightForeArm
              {
                OFFSET -26.4954 -0.160471 0.0134548
                CHANNELS 3 Zrotation Xrotation Yrotation
                JOINT RightHand
                {
                  OFFSET -26.0026 -0.0211725 -0.0218708
                  CHANNELS 3 Zrotation Xrotation Yrotation
                  JOINT RightHandThumb1
                  {
                    OFFSET -2.48905 0.190105 3.12053
                    CHANNELS 3 Zrotation Xrotation Yrotation
                    JOINT RightHandThumb2
                    {
                      OFFSET -3.68274 0 0
                      CHANNELS 3 Zrotation Xrotation Yrotation
                      JOINT RightHandThumb3
                      {
                        OFFSET -2.55832 0 0
                        CHANNELS 3 Zrotation Xrotation Yrotation
                        End Site
                        {
                          OFFSET -2.194 0 0
                        }
                      }
                    }
                  }
                  JOINT RightInHandIndex
                  {
                    OFFSET -3.22368 0.508421 1.97842
                    CHANNELS 3 Zrotation Xrotation Yrotation
                    JOINT RightHandIndex1
                    {
                      OFFSET -5.21684 -0.091368 0.999158
                      CHANNELS 3 Zrotation Xrotation Yrotation
                      JOINT RightHandIndex2
                      {
                        OFFSET -3.61937 0 0
                        CHANNELS 3 Zrotation Xrotation Yrotation
                        JOINT RightHandIndex3
                        {
                          OFFSET -2.0521 0 0
                          CHANNELS 3 Zrotation Xrotation Yrotation
                          End Site
                          {
                            OFFSET -1.805 0 0
                          }
                        }
                      }
                    }
                  }
                  JOINT RightInHandMiddle
                  {
                    OFFSET -3.38211 0.517263 0.756737
                    CHANNELS 3 Zrotation Xrotation Yrotation
                    JOINT RightHandMiddle1
                    {
                      OFFSET -5.17411 -0.084 0.313895
                      CHANNELS 3 Zrotation Xrotation Yrotation
                      JOINT RightHandMiddle2
                      {
                        OFFSET -3.94947 0 0
                        CHANNELS 3 Zrotation Xrotation Yrotation
                        JOINT RightHandMiddle3
                        {
                          OFFSET -2.47579 0 0
                          CHANNELS 3 Zrotation Xrotation Yrotation
                          End Site
                          {
                            OFFSET -1.975 0 0
                          }
                        }
                      }
                    }
                  }
                  JOINT RightInHandRing
                  {
                    OFFSET -3.36516 0.537895 -0.128947
                    CHANNELS 3 Zrotation Xrotation Yrotation
                    JOINT RightHandRing1
                    {
                      OFFSET -4.63474 -0.022105 -0.478947
                      CHANNELS 3 Zrotation Xrotation Yrotation
                      JOINT RightHandRing2
                      {
                        OFFSET -3.44238 0 0
                        CHANNELS 3 Zrotation Xrotation Yrotation
                        JOINT RightHandRing3
                        {
                          OFFSET -2.3881 0 0
                          CHANNELS 3 Zrotation Xrotation Yrotation
                          End Site
                          {
                            OFFSET -1.857 0 0
                          }
                        }
                      }
                    }
                  }
                  JOINT RightInHandPinky
                  {
                    OFFSET -3.16105 0.469368 -1.20179
                    CHANNELS 3 Zrotation Xrotation Yrotation
                    JOINT RightHandPinky1
                    {
                      OFFSET -4.14105 -0.022105 -1.09053
                      CHANNELS 3 Zrotation Xrotation Yrotation
                      JOINT RightHandPinky2
                      {
                        OFFSET -2.75653 0 0
                        CHANNELS 3 Zrotation Xrotation Yrotation
                        JOINT RightHandPinky3
                        {
                          OFFSET -1.74189 0 0
                          CHANNELS 3 Zrotation Xrotation Yrotation
                          End Site
                          {
                            OFFSET -1.645 0 0
                          }
                        }
                      }
                    }
                  }
                }
              }
            }
          }
          JOINT LeftShoulder
          {
            OFFSET 3.26342 6.92519 -0.0174379
            CHANNELS 3 Zrotation Xrotation Yrotation
            JOINT LeftArm
            {
              OFFSET 12.8742 -0.0269705 -0.0666419
              CHANNELS 3 Zrotation Xrotation Yrotation
              JOINT LeftForeArm
              {
                OFFSET 26.5114 0.000826062 -0.052783
                CHANNELS 3 Zrotation Xrotation Yrotation
                JOINT LeftHand
                {
                  OFFSET 25.9941 -0.0689373 0.00603348
                  CHANNELS 3 Zrotation Xrotation Yrotation
                  JOINT LeftHandThumb1
                  {
                    OFFSET 2.48905 0.190105 3.12053
                    CHANNELS 3 Zrotation Xrotation Yrotation
                    JOINT LeftHandThumb2
                    {
                      OFFSET 3.68274 0 0
                      CHANNELS 3 Zrotation Xrotation Yrotation
                      JOINT LeftHandThumb3
                      {
                        OFFSET 2.55832 0 0
                        CHANNELS 3 Zrotation Xrotation Yrotation
                        End Site
                        {
                          OFFSET 2.194 0 0
                        }
                      }
                    }
                  }
                  JOINT LeftInHandIndex
                  {
                    OFFSET 3.22368 0.508421 1.97842
                    CHANNELS 3 Zrotation Xrotation Yrotation
                    JOINT LeftHandIndex1
                    {
                      OFFSET 5.21684 -0.091368 0.999158
                      CHANNELS 3 Zrotation Xrotation Yrotation
                      JOINT LeftHandIndex2
                      {
                        OFFSET 3.61937 0 0
                        CHANNELS 3 Zrotation Xrotation Yrotation
                        JOINT LeftHandIndex3
                        {
                          OFFSET 2.0521 0 0
                          CHANNELS 3 Zrotation Xrotation Yrotation
                          End Site
                          {
                            OFFSET 1.805 0 0
                          }
                        }
                      }
                    }
                  }
                  JOINT LeftInHandMiddle
                  {
                    OFFSET 3.38211 0.517263 0.756737
                    CHANNELS 3 Zrotation Xrotation Yrotation
                    JOINT LeftHandMiddle1
                    {
                      OFFSET 5.17411 -0.084 0.313895
                      CHANNELS 3 Zrotation Xrotation Yrotation
                      JOINT LeftHandMiddle2
                      {
                        OFFSET 3.94947 0 0
                        CHANNELS 3 Zrotation Xrotation Yrotation
                        JOINT LeftHandMiddle3
                        {
                          OFFSET 2.47579 0 0
                          CHANNELS 3 Zrotation Xrotation Yrotation
                          End Site
                          {
                            OFFSET 1.975 0 0
                          }
                        }
                      }
                    }
                  }
                  JOINT LeftInHandRing
                  {
                    OFFSET 3.36516 0.537895 -0.128947
                    CHANNELS 3 Zrotation Xrotation Yrotation
                    JOINT LeftHandRing1
                    {
                      OFFSET 4.63474 -0.022105 -0.478947
                      CHANNELS 3 Zrotation Xrotation Yrotation
                      JOINT LeftHandRing2
                      {
                        OFFSET 3.44238 0 0
                        CHANNELS 3 Zrotation Xrotation Yrotation
                        JOINT LeftHandRing3
                        {
                          OFFSET 2.3881 0 0
                          CHANNELS 3 Zrotation Xrotation Yrotation
                          End Site
                          {
                            OFFSET 1.857 0 0
                          }
                        }
                      }
                    }
                  }
                  JOINT LeftInHandPinky
                  {
                    OFFSET 3.16105 0.469368 -1.20179
                    CHANNELS 3 Zrotation Xrotation Yrotation
                    JOINT LeftHandPinky1
                    {
                      OFFSET 4.14105 -0.022105 -1.09053
                      CHANNELS 3 Zrotation Xrotation Yrotation
                      JOINT LeftHandPinky2
                      {
                        OFFSET 2.75653 0 0
                        CHANNELS 3 Zrotation Xrotation Yrotation
                        JOINT LeftHandPinky3
                        {
                          OFFSET 1.74189 0 0
                          CHANNELS 3 Zrotation Xrotation Yrotation
                          End Site
                          {
                            OFFSET 1.645 0 0
                          }
                        }
                      }
                    }
                  }
                }
              }
            }
          }
        }
      }
    }
  }
}
MOTION
Frames: 3
Frame Time: 0.00833333
9.012622731258608155e+02 -3.652923808174564635e-01 -3.728396508743341831e-01 -5.401305224327961341e-01 -2.265885677708089130e+00 -1.879878347500890889e+00 4.395043775689187804e+00 2.436341331553010914e+00 1.175955411361551572e+00 -6.004821352237923460e-01 -4.179684790260803640e-01 1.314856111704749919e+00 -2.266071013285732683e+00 4.627384159618028292e+00 7.826569307868105341e+00 -1.348240649165129534e+00 3.159340017803735190e+00 -1.793312507138156819e+00 -2.588250787474544179e+00 1.742554629887870687e+00 2.577912816052259082e+00 2.244524140343583163e+00 -1.369685873396303544e+00 2.152584572038870991e+00 -1.101243397155097892e+00 -3.590084476396480984e+00 -1.083318943599491435e+00 -3.113300869875340049e-01 -9.701521715381656863e-01 -2.876799556115238743e-01 -4.779215948534239478e-01 -1.676443716601286216e+00 -5.757691332017950137e-01 -3.716844000115804986e-02 -1.679136436160310816e-02 2.052520313004619623e-01 8.689483221388617507e-01 -1.789409206356218640e-01 4.724906369028945008e+00 -1.050511139619717316e+00 1.646774113574315468e+00 6.149381532325581823e-01 -1.640004614448906217e+00 2.308273200496763433e+00 -1.155388356985165954e+00 -1.516518609316157296e+01 -1.337229808775328621e+01 -8.647175986996723296e+00 -7.595333087627369473e+00 -2.107544647047232544e-01 1.628045697798975056e+01 -2.831505241359138836e+00 5.766995041247454878e+00 8.373725676933123641e-01 0.000000000000000000e+00 0.000000000000000000e+00 0.000000000000000000e+00 -6.552231241924752913e-16 1.080460678413097904e-15 0.000000000000000000e+00 -1.316299786949895884e-15 8.494558422560341265e-17 0.000000000000000000e+00 8.270753987795591717e-16 5.790657497040498940e-16 -1.201005497859358079e-15 0.000000000000000000e+00 0.000000000000000000e+00 0.000000000000000000e+00 0.000000000000000000e+00 4.285806907178558591e-16 2.215519287950717145e-15 0.000000000000000000e+00 2.242300714053128323e-15 2.051029131935177445e-14 8.270753987795591717e-16 5.790657497040498940e-16 -1.201005497859358079e-15 0.000000000000000000e+00 -1.799449129418461445e-16 1.188571766473987570e-15 0.000000000000000000e+00 2.577273364619642978e-17 1.608370537324565069e-15 0.000000000000000000e+00 -3.340837314614309100e-15 -1.530333112075545572e-14 8.270753987795591717e-16 5.790657497040498940e-16 -1.201005497859358079e-15 0.000000000000000000e+00 0.000000000000000000e+00 0.000000000000000000e+00 0.000000000000000000e+00 -3.926166659037115754e-16 2.682203895490524132e-15 0.000000000000000000e+00 -2.876032389940874756e-15 -9.507033670137960251e-15 8.270753987795591717e-16 5.790657497040498940e-16 -1.201005497859358079e-15 0.000000000000000000e+00 0.000000000000000000e+00 0.000000000000000000e+00 0.000000000000000000e+00 1.862129831923938198e-16 8.394981847102692033e-16 0.000000000000000000e+00 4.210912519134450391e-17 -5.865810639938365941e-15 -3.431043688044676188e+00 2.056234551511825881e+00 9.661203934051719733e-01 7.569357499512658016e+00 -3.608875701717272566e+00 -4.428649091235929092e+00 2.254635592711914427e+01 -3.454615655309434707e+00 1.249663961870291606e+00 4.852003504260064659e+00 7.078100538741149972e-01 -4.557209708241079404e+00 0.000000000000000000e+00 0.000000000000000000e+00 0.000000000000000000e+00 1.155632547603882667e-15 1.020475646271436076e-15 0.000000000000000000e+00 3.636570488033171517e-16 3.354603973299058702e-16 0.000000000000000000e+00 1.683403026991061602e-15 -6.627637595576951163e-16 3.871534584575026118e-16 0.000000000000000000e+00 0.000000000000000000e+00 0.000000000000000000e+00 0.000000000000000000e+00 1.633408704496927907e-15 -1.097725806551214464e-15 0.000000000000000000e+00 7.021490104064409204e-16 -4.234739309849248272e-16 1.683403026991061602e-15 -6.627637595576951163e-16 3.871534584575026118e-16 0.000000000000000000e+00 1.257871557076110899e-15 -3.719214531804639144e-15 0.000000000000000000e+00 7.893125509320745945e-16 -2.585914581413790411e-15 0.000000000000000000e+00 -1.230727779561998381e-15 -2.575933793656669410e-15 1.683403026991061602e-15 -6.627637595576951163e-16 3.871534584575026118e-16 0.000000000000000000e+00 0.000000000000000000e+00 0.000000000000000000e+00 0.000000000000000000e+00 1.118866202635590467e-15 -1.693364923618010623e-15 0.000000000000000000e+00 2.192234245962085937e-16 -2.856366784476781787e-15 1.683403026991061602e-15 -6.627637595576951163e-16 3.871534584575026118e-16 0.000000000000000000e+00 0.000000000000000000e+00 0.000000000000000000e+00 0.000000000000000000e+00 7.631097641082392224e-16 -3.185511368207051018e-15 0.000000000000000000e+00 4.538468426749806348e-16 -2.918913449746128097e-15
9.013158061163702541e+02 -3.839736217615897229e-01 -3.711315462679461996e-01 -4.554769490813369570e-01 -2.256448391423197641e+00 -2.259521648937618643e+00 4.541866971194827407e+00 2.230129986389496999e+00 1.296787488806226296e+00 -6.214313560411306447e-01 -3.912720372966130844e-01 1.368849598620996533e+00 -2.226176987060377144e+00 4.605590077367923030e+00 7.812902475703378258e+00 -1.193751302908329093e+00 3.074490488051963233e+00 -1.658946711647934169e+00 -2.613674649965311403e+00 1.868055213140750848e+00 2.661476161901687565e+00 2.267810210264954218e+00 -1.422984128932470060e+00 2.241334299010695918e+00 -1.123120350687985880e+00 -3.596523671082710649e+00 -1.182017347584505051e+00 -3.167524984873320570e-01 -9.738664369986721470e-01 -3.122975108467253569e-01 -4.870612074610481956e-01 -1.683363439079833990e+00 -6.143455469312839590e-01 -4.226192324828841052e-02 -1.442869643386966022e-02 2.202751495326530917e-01 8.545828755701664337e-01 -1.080934046310174645e-01 4.666327962097744475e+00 -1.159469295868200467e+00 1.566229633366506668e+00 9.438347390874755050e-01 -1.623252091272303188e+00 2.326760968368263960e+00 -1.205251994217551692e+00 -1.516787981513640204e+01 -1.329176812888602655e+01 -9.004101236058385638e+00 -7.364483930836913217e+00 -4.617928817054476887e-01 1.679381824348334362e+01 -2.877147750821706929e+00 5.705144874650406095e+00 8.347889027529801220e-01 0.000000000000000000e+00 0.000000000000000000e+00 0.000000000000000000e+00 -5.943640568516282381e-16 1.038659933016025485e-15 0.000000000000000000e+00 -1.284010739429740338e-15 7.719921698212878526e-17 0.000000000000000000e+00 8.442876149336063052e-16 6.156936634119769309e-16 -1.204577785794171267e-15 0.000000000000000000e+00 0.000000000000000000e+00 0.000000000000000000e+00 0.000000000000000000e+00 4.244303487645763868e-16 2.140236032903885906e-15 0.000000000000000000e+00 2.298395632109090265e-15 2.066535390482667278e-14 8.442876149336063052e-16 6.156936634119769309e-16 -1.204577785794171267e-15 0.000000000000000000e+00 -1.733612334766087364e-16 1.114326486613563456e-15 0.000000000000000000e+00 2.341776549760394536e-18 1.507098627380981228e-15 0.000000000000000000e+00 -3.384342744460638823e-15 -1.549482847634395201e-14 8.442876149336063052e-16 6.156936634119769309e-16 -1.204577785794171267e-15 0.000000000000000000e+00 0.000000000000000000e+00 0.000000000000000000e+00 0.000000000000000000e+00 -3.805518477696599260e-16 2.590542871129531238e-15 0.000000000000000000e+00 -2.868977815123928005e-15 -9.609899761166400528e-15 8.442876149336063052e-16 6.156936634119769309e-16 -1.204577785794171267e-15 0.000000000000000000e+00 0.000000000000000000e+00 0.000000000000000000e+00 0.000000000000000000e+00 1.702012210782202493e-16 7.709235957465331489e-16 0.000000000000000000e+00 5.576247076821524868e-17 -5.974187204223834099e-15 -3.386190152265008191e+00 2.084647872898116816e+00 9.455282059640420789e-01 7.691575291081460541e+00 -3.571581489997645686e+00 -4.509732959852851053e+00 2.270221909248200376e+01 -3.181968602201414420e+00 1.806686051814087257e+00 4.853088132403499344e+00 6.952613949143718886e-01 -4.572007294607086436e+00 0.000000000000000000e+00 0.000000000000000000e+00 0.000000000000000000e+00 1.147426065330412525e-15 1.052543854739001264e-15 0.000000000000000000e+00 3.549969066232515734e-16 3.174814757033376983e-16 0.000000000000000000e+00 1.673701602534482163e-15 -6.558068450493326759e-16 3.738821935446835396e-16 0.000000000000000000e+00 0.000000000000000000e+00 0.000000000000000000e+00 0.000000000000000000e+00 1.593370667556901694e-15 -1.069749250788064959e-15 0.000000000000000000e+00 6.986704616901299409e-16 -3.892736516197851028e-16 1.673701602534482163e-15 -6.558068450493326759e-16 3.738821935446835396e-16 0.000000000000000000e+00 1.287529175928061910e-15 -3.727480747065007740e-15 0.000000000000000000e+00 7.202362804016004329e-16 -2.519011788909798920e-15 0.000000000000000000e+00 -1.270494253540456540e-15 -2.533956320850801211e-15 1.673701602534482163e-15 -6.558068450493326759e-16 3.738821935446835396e-16 0.000000000000000000e+00 0.000000000000000000e+00 0.000000000000000000e+00 0.000000000000000000e+00 1.119006065746562708e-15 -1.594824090448405107e-15 0.000000000000000000e+00 1.733780100159985256e-16 -2.866132559388800259e-15 1.673701602534482163e-15 -6.558068450493326759e-16 3.738821935446835396e-16 0.000000000000000000e+00 0.000000000000000000e+00 0.000000000000000000e+00 0.000000000000000000e+00 8.139611054930111610e-16 -3.135029074885627546e-15 0.000000000000000000e+00 4.750058792463232317e-16 -2.876889910178434923e-15
9.013660453302394444e+02 -4.016963158856042271e-01 -3.704535471914107148e-01 -3.669956731648720272e-01 -2.240256280442955550e+00 -2.636566262749936662e+00 4.677371783750197132e+00 2.015192657469590198e+00 1.412987312275346907e+00 -6.409786442656169037e-01 -3.616238223693416520e-01 1.418139781825736856e+00 -2.180180530850602150e+00 4.569971918346659834e+00 7.779920937253705482e+00 -1.033421471063746377e+00 2.980260804275150388e+00 -1.520620121317746598e+00 -2.632696475177067619e+00 1.989922056749522605e+00 2.737974891597769744e+00 2.285284025295702293e+00 -1.472879283374773918e+00 2.327204187479209541e+00 -1.142515862601350740e+00 -3.593984974885869210e+00 -1.279789454255879644e+00 -3.214512430088167783e-01 -9.750853054947562493e-01 -3.366731778067954539e-01 -4.951045082405353126e-01 -1.685934549062717780e+00 -6.522441900398218140e-01 -4.719429139372320614e-02 -1.200189845703367869e-02 2.348749140026111792e-01 8.378765507317617045e-01 -3.792914435109148719e-02 4.602012030358176631e+00 -1.264221000815122675e+00 1.483438965994375858e+00 1.269041059348820610e+00 -1.601764467500441214e+00 2.339581939662562338e+00 -1.253526775822680683e+00 -1.512884062651718153e+01 -1.318084252085310837e+01 -9.334117408979013319e+00 -7.122356232097789785e+00 -7.091473260119834920e-01 1.725294061250693289e+01 -2.915418846718583978e+00 5.628752083766102920e+00 8.316608998428907107e-01 0.000000000000000000e+00 0.000000000000000000e+00 0.000000000000000000e+00 -5.316400996249767864e-16 9.944146327691856443e-16 0.000000000000000000e+00 -1.248314061334437919e-15 6.929666605854186398e-17 0.000000000000000000e+00 8.580838666757790220e-16 6.500339174866933152e-16 -1.204535987152507736e-15 0.000000000000000000e+00 0.000000000000000000e+00 0.000000000000000000e+00 0.000000000000000000e+00 4.181455339294917563e-16 2.058965761423518812e-15 0.000000000000000000e+00 2.347007970774985059e-15 2.076138082822525898e-14 8.580838666757790220e-16 6.500339174866933152e-16 -1.204535987152507736e-15 0.000000000000000000e+00 -1.666877895265607953e-16 1.037910243301489674e-15 0.000000000000000000e+00 -2.101684881513609186e-17 1.401716209454417604e-15 0.000000000000000000e+00 -3.419216554407257214e-15 -1.564376580843238404e-14 8.580838666757790220e-16 6.500339174866933152e-16 -1.204535987152507736e-15 0.000000000000000000e+00 0.000000000000000000e+00 0.000000000000000000e+00 0.000000000000000000e+00 -3.674935480129960831e-16 2.492118493597186234e-15 0.000000000000000000e+00 -2.854472354604843782e-15 -9.687224213474205444e-15 8.580838666757790220e-16 6.500339174866933152e-16 -1.204535987152507736e-15 0.000000000000000000e+00 0.000000000000000000e+00 0.000000000000000000e+00 0.000000000000000000e+00 1.537537373770870905e-16 7.004212741727227690e-16 0.000000000000000000e+00 6.917370886981029183e-17 -6.065519718194010293e-15 -3.332427447335780890e+00 2.106292099143846297e+00 9.219030826498566533e-01 7.795559738334157274e+00 -3.523476323274015609e+00 -4.583082311690750643e+00 2.280334977730522183e+01 -2.905362284194261235e+00 2.361936596353629625e+00 4.840121259919308194e+00 6.804491062223718689e-01 -4.575461064725076632e+00 0.000000000000000000e+00 0.000000000000000000e+00 0.000000000000000000e+00 1.136151193841769091e-15 1.081150697592067659e-15 0.000000000000000000e+00 3.455065789885131717e-16 2.988506689994689216e-16 0.000000000000000000e+00 1.659431062331161514e-15 -6.468499442414321023e-16 3.596948072789996860e-16 0.000000000000000000e+00 0.000000000000000000e+00 0.000000000000000000e+00 0.000000000000000000e+00 1.549099031776828572e-15 -1.037799985488493462e-15 0.000000000000000000e+00 6.934695737162712495e-16 -3.545708123398523739e-16 1.659431062331161514e-15 -6.468499442414321023e-16 3.596948072789996860e-16 0.000000000000000000e+00 1.312975880808892490e-15 -3.725294084857972978e-15 0.000000000000000000e+00 6.506420375739021519e-16 -2.445514634539406725e-15 0.000000000000000000e+00 -1.306057406234257531e-15 -2.484637225568212355e-15 1.659431062331161514e-15 -6.468499442414321023e-16 3.596948072789996860e-16 0.000000000000000000e+00 0.000000000000000000e+00 0.000000000000000000e+00 0.000000000000000000e+00 1.116185707362782658e-15 -1.492066030282541509e-15 0.000000000000000000e+00 1.273322900951908565e-16 -2.867225880336734155e-15 1.659431062331161514e-15 -6.468499442414321023e-16 3.596948072789996860e-16 0.000000000000000000e+00 0.000000000000000000e+00 0.000000000000000000e+00 0.000000000000000000e+00 8.615011860052964121e-16 -3.075328314512665919e-15 0.000000000000000000e+00 4.942009997081618362e-16 -2.826258631517038042e-15
